# xmcd CD database file
#
# Track frame offsets:
#	150
#	19894
#	40601
#	68793
#	80353
#	97105
#	123169
#	132936
#	161163
#	204098
#	228175
#	255749
#	275521
#	292163
#
# Disc length: 4104 seconds
#
# Revision: 6
# Processed by: cddbd v1.4PL0 Copyright (c) Steve Scherf et al.
# Submitted via: CDex 1.40Release
#
DISCID=c110060e
DTITLE=SON HOUSE - THE ORIGINAL DELTA BLUES
DYEAR=1965
DGENRE=Blues
TTITLE0=DEATH LETTER
TTITLE1=PEARLINE
TTITLE2=LOUISE McGHEE
TTITLE3=JOHN THE REVELATOR
TTITLE4=EMPIRE STATE EXPRESS
TTITLE5=PREACHIN' BLUES
TTITLE6=GRINNIN' IN YOUR FACE
TTITLE7=SUNDOWN
TTITLE8=LEVEE CAMP MOAN
TTITLE9=PONY BLUES
TTITLE10=DOWNHEARTED BLUES
TTITLE11=MOTHERLESS CHILDREN
TTITLE12=PRESIDENT KENNEDY
TTITLE13=YONDER COMES MY MOTHER
EXTD=YEAR: 1965 ID3G: 0
EXTT0=
EXTT1=
EXTT2=
EXTT3=
EXTT4=
EXTT5=
EXTT6=
EXTT7=
EXTT8=
EXTT9=
EXTT10=
EXTT11=
EXTT12=
EXTT13=
PLAYORDER=
